<svg width="1024" height="1024" viewBox="0 0 1024 1024" fill="none" xmlns="http://www.w3.org/2000/svg">
  <rect width="1024" height="1024" rx="224" fill="url(#background)" />
  <path d="M236 472C236 319.6 359.6 196 512 196C664.4 196 788 319.6 788 472C788 625.2 659.8 744.9 528.2 815.7C518.1 821.1 505.9 821.1 495.8 815.7C364.2 744.9 236 625.2 236 472Z" fill="white" fill-opacity="0.18" />
  <path d="M326 491.3L512 335L698 491.3" stroke="white" stroke-width="58" stroke-linecap="round" stroke-linejoin="round" />
  <path d="M382 471V661C382 686.4 402.6 707 428 707H596C621.4 707 642 686.4 642 661V471" stroke="white" stroke-width="58" stroke-linecap="round" stroke-linejoin="round" />
  <path d="M504 520H520C565.3 520 602 556.7 602 602C602 647.3 565.3 684 520 684H504C458.7 684 422 647.3 422 602C422 556.7 458.7 520 504 520Z" fill="url(#pill)" />
  <path d="M453 544L580 657" stroke="white" stroke-width="34" stroke-linecap="round" />
  <path d="M704 272V366" stroke="#DDF9F2" stroke-width="42" stroke-linecap="round" />
  <path d="M657 319H751" stroke="#DDF9F2" stroke-width="42" stroke-linecap="round" />
  <defs>
    <linearGradient id="background" x1="154" y1="126" x2="868" y2="898" gradientUnits="userSpaceOnUse">
      <stop stop-color="#19C7A8" />
      <stop offset="0.52" stop-color="#0F8F83" />
      <stop offset="1" stop-color="#0B3D68" />
    </linearGradient>
    <linearGradient id="pill" x1="422" y1="520" x2="602" y2="684" gradientUnits="userSpaceOnUse">
      <stop stop-color="#FBF4D6" />
      <stop offset="1" stop-color="#F7B267" />
    </linearGradient>
  </defs>
</svg>
